<svg width="40" height="40" viewBox="0 0 40 40" fill="none" xmlns="http://www.w3.org/2000/svg">
<path fill-rule="evenodd" clip-rule="evenodd" d="M24.2764 16.106C26.1035 16.106 28.2523 14.9345 28.2523 14.3215C28.2523 14.1636 28.2523 14.0119 27.87 14.0181C27.6512 14.0181 27.6062 14.0293 27.4699 14.0635C27.3415 14.0956 27.1319 14.1481 26.6196 14.2305C25.7755 14.3584 24.7719 14.3527 23.9031 14.3477C23.741 14.3468 23.5836 14.3459 23.4328 14.3459C20.8226 14.3034 17.6177 13.7692 16.3308 13.5385C15.2139 13.3504 14.2002 13.2715 13.2957 13.2715C8.51859 13.2715 6.57618 15.1896 6.558 17.0895C6.53972 18.1032 7.2924 19.1412 8.40322 19.1412C10.3942 19.1412 11.5476 17.0652 11.6447 16.3186C11.6447 16.3186 11.6811 16.185 11.5657 16.0879C11.5111 16.0515 11.3533 16.0697 11.2986 16.2032C11.0316 16.8406 9.95109 17.569 9.18628 17.7025C8.47606 17.8361 7.9965 17.4536 7.96009 16.8588C7.88718 15.3959 9.53828 13.8055 13.241 13.8055C14.2973 13.8055 15.6387 14.0908 17.1198 14.4368C17.1239 14.4378 17.1281 14.4387 17.1322 14.4396C16.5053 14.6105 14.4414 16.2181 12.8222 18.7041C12.7885 18.7082 12.7466 18.713 12.6977 18.7186C12.1059 18.7859 10.4932 18.9693 9.92678 19.6085C9.86612 19.6875 9.8115 19.821 9.8115 19.8574C9.8479 20.0092 9.96325 20.0881 10.1392 19.9545C10.5216 19.5113 12.0756 19.3415 12.4398 19.3233C10.1757 22.51 8.0815 24.6042 6.22409 24.6042C6.18522 24.6042 6.14659 24.6049 6.10797 24.6056C5.95353 24.6085 5.79912 24.6115 5.62918 24.5678C4.88259 24.3978 4.43947 23.6087 4.43947 22.8985C4.43947 21.9576 5.34387 20.9379 5.85978 20.7497C6.02978 20.6708 6.10868 20.5798 6.10868 20.5009C6.10868 20.3855 6.02978 20.3066 5.82343 20.3066C4.03884 20.7498 3.07977 22.2066 3.09791 23.3963C3.13437 25.3569 4.61547 26.4496 6.28468 26.4496C8.62778 26.4496 9.81753 25.4298 13.6357 19.2505C15.1532 19.0988 15.8998 19.0016 16.6706 18.8681C16.6706 18.8681 16.9013 19.4265 17.4779 19.4265C17.5487 19.4398 17.5582 19.3918 17.5793 19.2848C17.5872 19.245 17.5966 19.1971 17.6115 19.1412C17.3626 19.123 17.0712 18.947 17.0712 18.7406C17.3019 18.6253 17.4961 18.4917 17.666 18.3582C17.909 18.1213 18.1577 17.6418 18.1577 17.314C18.1577 17.0045 17.9271 16.7192 17.5811 16.6585C16.968 16.5613 16.4885 17.059 16.4278 17.8846C16.4278 18.097 16.5067 18.346 16.5067 18.346C16.5067 18.346 15.1652 18.5766 14.012 18.6312C15.225 16.5834 16.3542 15.6691 16.896 15.2303C16.9885 15.1553 17.064 15.0942 17.1198 15.0438C17.1987 14.9891 17.3869 14.7767 17.4051 14.7343C17.4461 14.6335 17.4184 14.554 17.3722 14.5008C17.7154 14.5952 18.133 14.7348 18.6062 14.893C20.1317 15.4031 22.2338 16.106 24.2764 16.106ZM16.968 17.5629C16.871 17.8664 16.9134 18.0788 16.968 18.3095C16.968 18.3095 17.1623 18.3338 17.4536 18.006C17.5689 17.8907 17.7571 17.5447 17.7208 17.314C17.7025 17.1987 17.6418 17.065 17.5083 17.0834C17.2169 17.138 17.047 17.2776 16.968 17.5629Z" fill="#111111"/>
<path fill-rule="evenodd" clip-rule="evenodd" d="M35.2978 23.4328C35.3706 23.3356 35.5044 23.1657 35.5831 23.1657C35.6622 23.1657 35.8138 23.2445 35.8138 23.3535C35.8138 23.4325 35.6378 23.7239 35.5041 23.8938C34.7394 24.8529 33.4706 26.334 32.0322 26.3704C31.3219 26.3704 31.0548 26.0851 30.9577 25.5267C30.6299 25.8181 29.5191 26.3158 28.384 26.3158C27.4431 26.2915 27.0607 25.7392 26.8665 25.2961C26.6965 24.9319 26.6177 24.3977 26.7512 23.8574C26.2352 24.1245 25.7557 24.161 25.0637 24.1428C24.2563 24.1246 23.7586 23.7604 23.5097 22.8195C23.3054 23.1944 23.1446 23.4891 23.0077 23.7397C22.5266 24.6211 22.3423 24.9587 21.6097 26.334H19.9769L22.0711 22.7831C22.3381 22.3035 22.4717 21.9151 22.5688 21.5144C22.6295 21.2838 22.4535 21.0714 22.2046 21.0531C21.9315 21.0531 21.4944 21.3263 21.0695 21.7269C21.0695 21.7269 19.9951 22.8802 19.206 24.0517C18.4594 25.1626 17.1726 26.4312 15.7704 26.4312C14.7506 26.4312 13.834 25.8728 13.6398 24.7984C13.6398 24.7984 13.5488 25.0473 12.6443 25.5632C12.6287 25.5705 12.6084 25.5808 12.5856 25.5925C12.4937 25.6395 12.3603 25.7078 12.3166 25.6786C12.1466 25.5268 12.0494 25.3325 12.0312 25.199C12.0865 25.2156 12.1868 25.1368 12.4785 24.9078L12.5715 24.8348C13.2817 24.3006 13.4335 23.8758 13.4335 23.8758C13.6095 23.5115 13.913 22.9349 14.1254 22.5343C14.7021 21.3809 15.6977 20.2094 17.3305 20.1548C17.5976 20.1548 17.6764 20.2702 17.7311 20.3672C17.8828 20.4825 17.8282 20.7132 17.8282 20.7132C16.6809 20.8892 15.8919 21.5569 15.4123 22.2125C15.1209 22.6374 14.8113 23.3294 14.7567 23.8272C14.6414 24.6891 15.0421 25.2657 15.6368 25.3993C16.7477 25.5693 17.6703 24.768 18.3988 23.5176C18.5931 23.1899 18.7265 22.3461 18.7265 21.8848C18.7265 21.4234 18.4777 20.9439 18.2834 20.7497C18.2834 20.4219 18.4959 20.2094 18.7448 20.2094C18.8237 20.2094 18.8965 20.2094 18.9754 20.2884C19.3578 20.6707 19.5703 21.3992 19.5703 21.9576C19.5703 22.1519 19.5703 22.34 19.5338 22.5343L19.6612 22.38C20.4457 21.4281 21.3958 20.2754 22.144 20.0395C22.2958 19.9606 22.4535 19.9606 22.6053 19.9606C24.0499 19.9241 23.8558 21.2292 23.8558 21.2292C24.6206 20.343 25.1608 20.0213 25.871 20.0578C26.6419 20.0941 26.909 20.6283 26.909 21.0532C26.8847 21.5509 26.5205 22.1276 25.8893 22.1458C25.3308 22.1458 25.003 21.8787 24.8331 21.381C24.4688 21.5146 24.2989 21.7634 24.22 22.2612C24.1047 22.8985 24.5842 23.3963 25.1973 23.3963C26.2095 23.3963 26.6753 22.9726 27.049 22.6328L27.0972 22.5889C27.3701 22.3326 27.6177 22.0736 27.856 21.8244C28.7573 20.8818 29.5242 20.0798 31.0125 20.0942C32.0256 20.1105 32.3619 20.8328 32.5603 21.2598C32.5844 21.3111 32.6063 21.3582 32.6272 21.3993L35.1038 17.217H36.6213L32.5119 24.4889C32.4972 24.5179 32.4794 24.551 32.4594 24.5873C32.3709 24.7494 32.2481 24.9742 32.2628 25.1627C32.3053 25.5269 32.7606 25.4298 32.5906 25.4298C33.4163 25.3934 34.9338 23.8152 35.2978 23.4328ZM30.4783 24.4768C31.1521 23.8031 31.8016 22.7104 31.8016 22.7104L31.5891 22.6618C31.9956 21.9152 31.9169 21.1078 31.0913 21.0107C30.4175 20.9319 29.5738 21.5085 28.8818 22.3522C28.5419 22.7711 28.1716 23.5784 28.117 24.0579C28.0381 24.5375 28.1777 25.0171 28.3477 25.1506C28.5177 25.2841 29.2886 25.6847 30.4783 24.4768Z" fill="#111111"/>
</svg>
