<svg width="40" height="40" viewBox="0 0 40 40" fill="none" xmlns="http://www.w3.org/2000/svg">
<path fill-rule="evenodd" clip-rule="evenodd" d="M14.2718 22.7499L10.1211 20.0362L9.89531 19.8884L9.13991 19.3916L10.1745 19.7037L14.2718 17.0269H11.1229C10.9874 17.0269 10.856 17.0638 10.7411 17.1336L8.10941 18.7183L7.55928 19.0509C7.39506 19.1494 7.20209 19.2028 7.00912 19.2028H5.62556V17.031H2.79688V22.7499H5.62556V20.5781H7.00912C7.20209 20.5781 7.39506 20.6315 7.55928 20.73L8.10941 21.0585L10.7411 22.6432C10.856 22.713 10.9874 22.7499 11.1229 22.7499H14.2718ZM25.3279 18.6608V18.4144C25.3279 17.6508 24.4904 17.0309 23.5338 17.0309H16.0741C15.0313 17.0309 14.1035 17.6221 14.1035 18.9194V20.9065C14.1035 22.0848 15.0724 22.754 16.1152 22.754H23.5543C24.7408 22.754 25.3279 22.1299 25.3279 21.0625V19.9622C25.3279 19.6708 25.1802 19.4367 24.6382 19.4367H18.406C18.3527 19.4367 18.3321 19.5065 18.3773 19.5353L19.65 20.3851C19.7403 20.4467 19.806 20.4795 19.9169 20.4795L22.3597 20.5001C22.4705 20.5001 22.4951 20.5452 22.4951 20.5945V21.2555C22.4951 21.6373 22.101 21.7522 21.752 21.7522H17.667C17.2647 21.7522 16.9363 21.4238 16.9363 21.0214V18.7388C16.9363 18.3364 17.1949 18.008 17.667 18.008H21.6699C21.945 18.008 22.413 18.0491 22.413 18.5048V18.591C22.413 18.632 22.4459 18.6608 22.4828 18.6608H25.3279ZM37.4843 22.7499V17.0309H34.0193L33.9331 17.1253L32.2415 18.9564L32.9396 20.0238L32.0527 19.1617L31.7859 18.8989L29.8686 17.0309H26.42V22.7499H29.2323V18.5746L30.8745 20.4385L31.1003 20.693H32.9724L33.2599 20.3359L34.6721 18.5582V22.7499H37.4843Z" fill="#111111"/>
</svg>
