<svg width="75" height="69" viewBox="0 0 75 69" fill="none" xmlns="http://www.w3.org/2000/svg">
<mask id="mask0_1558_8990" style="mask-type:luminance" maskUnits="userSpaceOnUse" x="0" y="0" width="75" height="69">
<path d="M0 0H74.5V68.2H0V0Z" fill="white"/>
</mask>
<g mask="url(#mask0_1558_8990)">
<path d="M74.5 65.2357L70.9671 68.1715V59.4405L74.5 65.2357ZM0 3H9L3.20699 0.0283203L0 3Z" fill="#BC1727"/>
</g>
<mask id="mask1_1558_8990" style="mask-type:luminance" maskUnits="userSpaceOnUse" x="3" y="0" width="72" height="66">
<path d="M3.19922 0H74.5V65.3033H3.19922V0Z" fill="white"/>
</mask>
<g mask="url(#mask1_1558_8990)">
<path d="M74.498 33.2971V65.2357L3 0.0283203H38.154L74.498 33.2971Z" fill="#E5212B"/>
</g>
<path d="M30.1072 3.13874C31.1626 4.10491 31.0734 5.18474 29.9675 6.18998L29.7522 6.3889L28.7259 5.45115L29.0111 5.18829C29.5058 4.73718 29.4961 4.38375 29.1508 4.06939C28.8054 3.75325 28.4213 3.7426 27.9266 4.19371C26.5064 5.49555 28.3611 7.68008 26.388 9.48632C25.2841 10.4969 24.0987 10.5697 23.0336 9.59465C21.9685 8.61961 22.0519 7.53089 23.1539 6.52388L23.5768 6.1367L24.6032 7.07445L24.1104 7.53089C23.6156 7.98201 23.6544 8.34965 24.0017 8.66046C24.3471 8.97126 24.7467 9.01211 25.2356 8.561C26.6538 7.26093 24.7991 5.07463 26.7722 3.26839C27.878 2.2525 29.0557 2.1708 30.1072 3.13874ZM33.7663 9.75627L32.8719 10.575C31.766 11.5856 30.6369 11.6495 29.5485 10.655L29.0344 10.1861L26.4366 12.566L25.352 11.5714L32.2569 5.25223L33.8555 6.71214C34.94 7.7085 34.8663 8.74571 33.7663 9.75627ZM32.3558 7.14727L30.0199 9.2874L30.5321 9.75627C30.8755 10.0724 31.2208 10.1008 31.7156 9.64971L32.7574 8.6942C33.2502 8.24309 33.2211 7.92695 32.8777 7.60904L32.3558 7.14727ZM34.1426 12.312L35.6326 13.676L34.6471 14.58L33.1571 13.216L31.1413 15.0666L33.0154 16.7823L32.0357 17.6863L29.0751 14.9761L35.9799 8.65513L38.9405 11.3654L37.953 12.2676L36.075 10.5519L34.1426 12.312ZM38.4148 18.823L37.5048 19.6701C36.4009 20.6807 35.2155 20.7535 34.1504 19.7785C33.0853 18.8034 33.1648 17.72 34.2707 16.7077L37.8618 13.422C38.9657 12.4097 40.1473 12.3298 41.2143 13.3119C42.2794 14.2941 42.1999 15.3721 41.096 16.3827L40.4247 16.9972L39.3984 16.0577L40.1434 15.3757C40.6362 14.9246 40.6071 14.5587 40.2617 14.239C39.9164 13.9193 39.5167 13.8945 39.0181 14.3473L35.2931 17.7573C34.8003 18.2102 34.8469 18.5761 35.1845 18.8851C35.524 19.1959 35.9295 19.2386 36.4164 18.7874L37.404 17.8852L38.4148 18.823ZM43.4066 15.4645L44.4912 16.4573L37.5863 22.7782L36.5057 21.7854L43.4066 15.4645ZM41.8875 26.7157L40.7914 25.7122L41.8565 24.3944L40.5275 23.176L39.088 24.1511L38.0908 23.2382L46.1014 17.9296L47.6885 19.3824L41.8875 26.7157ZM41.6004 22.4443L42.6442 23.3998L45.6125 19.7252L41.6004 22.4443ZM49.2949 20.8548L50.3794 21.8493L44.4621 27.2663L46.2489 28.9038L45.2633 29.806L42.3978 27.1721L49.2949 20.8548ZM52.4242 26.753C53.5282 25.7406 54.7407 25.6945 55.8058 26.6695C56.871 27.6463 56.8283 28.7564 55.7263 29.7634L52.1352 33.0491C51.0293 34.0614 49.8167 34.1076 48.7516 33.1308C47.6865 32.1557 47.735 31.0457 48.8409 30.0333L52.4242 26.753ZM49.8556 31.0954C49.3628 31.5465 49.3919 31.9142 49.7372 32.2321C50.0806 32.5518 50.4822 32.5766 50.9789 32.1255L54.7039 28.7155C55.1967 28.2626 55.1676 27.8968 54.8222 27.5771C54.4769 27.2574 54.0772 27.2343 53.5786 27.6854L49.8556 31.0954ZM56.0988 32.6938L57.4996 33.9762L56.512 34.8784L55.1113 33.5961L52.2613 36.2069L51.1768 35.2194L58.0816 28.8984L60.951 31.5252L59.9654 32.4292L58.1767 30.7917L56.0988 32.6938ZM59.492 35.8001L60.8928 37.0825L59.9072 37.9847L58.5065 36.7024L55.6545 39.3114L54.57 38.3186L61.4748 31.9976L64.3462 34.6244L63.3587 35.5284L61.5718 33.8909L59.492 35.8001ZM63.0444 38.7661L64.5344 40.1301L63.5449 41.0324L62.0549 39.6684L60.0333 41.5208L61.9075 43.2347L60.9219 44.1369L57.9613 41.4249L64.8661 35.1039L67.8287 37.8106L66.8412 38.7146L64.9631 37.0008L63.0444 38.7661ZM63.8612 46.8294C63.9814 46.6127 64.0494 46.4777 64.6062 45.9644L65.6926 44.9716C66.3329 44.3838 66.3523 43.9682 65.8595 43.517L65.485 43.1725L62.6738 45.7478L61.5893 44.7549L68.4941 38.434L70.1335 39.933C71.2588 40.9631 71.218 41.8849 70.1529 42.8599L69.6097 43.3572C68.8996 44.0072 68.2089 44.2239 67.4989 43.9895C67.8151 44.6928 67.4678 45.3339 66.7539 45.9946L65.6887 46.9697C65.3531 47.2769 65.1164 47.5149 64.969 47.8453L63.8612 46.8294ZM68.597 40.3291L66.4764 42.2703L66.9013 42.6539C67.3068 43.0233 67.7317 43.0872 68.2827 42.5811L68.9636 41.9577C69.4564 41.5066 69.5049 41.1549 69.1208 40.8033L68.597 40.3291Z" fill="white"/>
</svg>
