<svg width="34" height="22" viewBox="0 0 34 22" fill="none" xmlns="http://www.w3.org/2000/svg">
<path fill-rule="evenodd" clip-rule="evenodd" d="M16.875 21.6082C26.1948 21.6082 33.75 16.7711 33.75 10.8041C33.75 4.83716 26.1948 0 16.875 0C7.55519 0 0 4.83716 0 10.8041C0 16.7711 7.55519 21.6082 16.875 21.6082ZM18.1015 20.339C25.3696 19.929 31.0747 15.9088 31.0747 11.0099C31.0747 9.49384 30.5284 8.06197 29.5584 6.79516C28.6025 8.69263 25.3012 10.2257 20.9908 10.8323C20.9908 10.8572 20.9908 10.8821 20.9908 10.907C20.9908 15.3373 19.7756 19.0864 18.1015 20.339ZM15.6485 20.339C13.9744 19.0864 12.7592 15.3373 12.7592 10.907C12.7592 10.8821 12.7592 10.8572 12.7593 10.8323C8.44878 10.2257 5.14741 8.69263 4.19169 6.79516C3.22169 8.06197 2.67531 9.49384 2.67531 11.0099C2.67531 15.9088 8.38044 19.929 15.6485 20.339ZM14.4203 11.0152C14.5557 14.3108 15.6031 16.875 16.875 16.875C18.1469 16.875 19.1943 14.3108 19.3297 11.0152C18.5349 11.0793 17.7143 11.1128 16.875 11.1128C16.0357 11.1128 15.2151 11.0793 14.4203 11.0152ZM19.2097 8.13816C18.4621 8.19928 17.6801 8.23169 16.8751 8.23169C16.0701 8.23169 15.288 8.19925 14.5403 8.13812C14.8746 5.55762 15.7937 3.70425 16.875 3.70425C17.9563 3.70425 18.8754 5.55762 19.2097 8.13816ZM20.8043 7.95753C24.1881 7.46081 26.5474 6.34222 26.5474 5.04191C26.5474 4.46669 26.0857 3.92703 25.2779 3.46106C24.6558 3.15941 23.995 2.89041 23.3013 2.65787C21.9928 2.274 20.3662 2.0055 18.5682 1.90081C19.6305 3.053 20.4525 5.25597 20.8043 7.95753ZM15.1818 1.90084C14.1195 3.053 13.2975 5.25597 12.9457 7.95747C9.56203 7.46075 7.20287 6.34219 7.20287 5.04191C7.20287 4.46638 7.66506 3.92647 8.47369 3.46028C9.09484 3.15922 9.7545 2.89066 10.4469 2.65847C11.7557 2.27428 13.383 2.00559 15.1818 1.90084Z" fill="#111111"/>
</svg>
